<?xml version="1.0" encoding="UTF-8"?>
<svg id="Layer_2" data-name="Layer 2" xmlns="http://www.w3.org/2000/svg" viewBox="0 0 1120.92 104.64">
  <defs>
    <style>
      .cls-1 {
        fill: #ffd600;
      }
    </style>
  </defs>
  <g id="Layer_1-2" data-name="Layer 1">
    <g>
      <g>
        <path class="cls-1" d="M868.85,79.61c8.34,0,12.5-4.53,14.16-9.88.82-2.64,3.28-4.43,6.04-4.43h16.15c4.03,0,7.03,3.7,6.23,7.65-3.63,18.06-18.21,31.68-42.03,31.68-31.08,0-45.93-17.6-45.93-43.73v-12.65c0-26.13,14.85-43.73,45.93-43.73,23.83,0,38.4,13.62,42.03,31.68.79,3.95-2.2,7.65-6.23,7.65h-16.15c-2.76,0-5.22-1.78-6.04-4.43-1.66-5.35-5.82-9.88-14.16-9.88-10.31,0-15.27,6.74-15.27,17.33v15.4c0,10.59,4.95,17.33,15.27,17.33Z"/>
        <path class="cls-1" d="M57.7,45.92l-25.08-6.65c-2.93-.86-4.34-2.71-4.34-5.67,0-2.59,1.3-6.95,9.99-6.95,2.71,0,4.71.48,6.18,1.23,3.54,2.27,2.68,3.26,3.13,6.18.4,2.54,2.93,2.12,3.38,2.12h19.51c4.42,0,3.71-5.17,3.62-5.9-2.09-15.1-15.61-24.64-35.68-24.64C14.84,5.64.76,16.82.76,35.54c0,15.32,6.93,23.27,23.91,27.44l22.3,5.54c3.08.81,4.91,3.19,4.91,6.37,0,5.31-4.84,8.61-12.63,8.61-3.98,0-7.21-1.06-9.39-2.91-1.19-1.01-2.08-2.26-2.59-3.71-.04-.11-.06-.21-.07-.33-.05-.44-.19-1.68-.4-2.11-.38-.76-.99-1.37-1.75-1.74-.51-.25-1.08-.4-1.69-.4H3.84c-.61,0-1.18.15-1.69.4-1.22.6-2.07,1.81-2.15,3.24.38,8.92,4.55,16.2,11.67,21.17,6.76,4.73,16.14,7.41,27.45,7.41,23.72,0,40.29-13.15,40.29-31.98,0-14.08-7.1-22.79-21.7-26.61Z"/>
        <path class="cls-1" d="M1064.28,45.92l-25.08-6.65c-2.93-.86-4.34-2.71-4.34-5.67,0-2.59,1.3-6.95,9.99-6.95,2.71,0,4.71.48,6.18,1.23,3.54,2.27,2.68,3.26,3.13,6.18.4,2.54,2.93,2.12,3.38,2.12h19.51c4.42,0,3.71-5.17,3.62-5.9-2.09-15.1-15.61-24.64-35.68-24.64-23.58,0-37.66,11.18-37.66,29.9,0,15.32,6.93,23.27,23.91,27.44l22.3,5.54c3.08.81,4.91,3.19,4.91,6.37,0,5.31-4.84,8.61-12.63,8.61-3.98,0-7.21-1.06-9.39-2.91-1.19-1.01-2.08-2.26-2.59-3.71-.04-.11-.06-.21-.07-.33-.05-.44-.19-1.68-.4-2.11-.38-.76-.99-1.37-1.75-1.74-.51-.25-1.08-.4-1.69-.4h-19.51c-.61,0-1.18.15-1.69.4-1.22.6-2.07,1.81-2.15,3.24.38,8.92,4.55,16.2,11.67,21.17,6.76,4.73,16.14,7.41,27.45,7.41,23.72,0,40.29-13.15,40.29-31.98,0-14.08-7.1-22.79-21.7-26.61Z"/>
        <path class="cls-1" d="M112.46,102.57h19.15c2.54,0,4.6-2.06,4.6-4.6v-62.14c0-2.54,2.06-4.6,4.6-4.6h15.32c2.54,0,4.6-2.06,4.6-4.6v-14.45c0-2.54-2.06-4.6-4.6-4.6h-68.05c-2.54,0-4.6,2.06-4.6,4.6v14.45c0,2.54,2.06,4.6,4.6,4.6h15.18c2.54,0,4.6,2.06,4.6,4.6v62.14c0,2.54,2.06,4.6,4.6,4.6Z"/>
        <path class="cls-1" d="M243.8,72.09c10.4-5.96,16.12-16.48,16.12-29.62,0-21.52-14.22-34.89-37.11-34.89h-42.89c-2.54,0-4.6,2.06-4.6,4.6v85.79c0,2.54,2.06,4.6,4.6,4.6h19.16c2.54,0,4.6-2.06,4.6-4.6v-16.29c0-2.54,2.06-4.6,4.6-4.6h3.04c1.64,0,3.15.87,3.98,2.29l12.16,20.91c.82,1.42,2.34,2.29,3.98,2.29h21.99c3.62,0,5.82-3.99,3.9-7.05l-14.42-22.92.89-.51ZM219.35,55.1h-11.07c-2.54,0-4.6-2.06-4.6-4.6v-16.05c0-2.54,2.06-4.6,4.6-4.6h11.07c7.65,0,12.21,4.77,12.21,12.76s-4.79,12.49-12.21,12.49Z"/>
        <path class="cls-1" d="M306.64,66h29.58c2.54,0,4.6-2.06,4.6-4.6v-13.76c0-2.54-2.06-4.6-4.6-4.6h-29.58c-2.54,0-4.6-2.06-4.6-4.6v-3.3c0-2.54,2.06-4.6,4.6-4.6h33.74c2.54,0,4.6-2.06,4.6-4.6v-13.76c0-2.54-2.06-4.6-4.6-4.6h-62.1c-2.54,0-4.6,2.06-4.6,4.6v85.79c0,2.54,2.06,4.6,4.6,4.6h62.24c2.54,0,4.6-2.06,4.6-4.6v-13.76c0-2.54-2.06-4.6-4.6-4.6h-33.88c-2.54,0-4.6-2.06-4.6-4.6v-4.41c0-2.54,2.06-4.6,4.6-4.6Z"/>
        <path class="cls-1" d="M392.59,66h29.58c2.54,0,4.6-2.06,4.6-4.6v-13.76c0-2.54-2.06-4.6-4.6-4.6h-29.58c-2.54,0-4.6-2.06-4.6-4.6v-3.3c0-2.54,2.06-4.6,4.6-4.6h33.74c2.54,0,4.6-2.06,4.6-4.6v-13.76c0-2.54-2.06-4.6-4.6-4.6h-62.1c-2.54,0-4.6,2.06-4.6,4.6v85.79c0,2.54,2.06,4.6,4.6,4.6h62.24c2.54,0,4.6-2.06,4.6-4.6v-13.76c0-2.54-2.06-4.6-4.6-4.6h-33.88c-2.54,0-4.6-2.06-4.6-4.6v-4.41c0-2.54,2.06-4.6,4.6-4.6Z"/>
        <path class="cls-1" d="M473.12,102.57h19.16c2.54,0,4.6-2.06,4.6-4.6v-62.14c0-2.54,2.06-4.6,4.6-4.6h15.32c2.54,0,4.6-2.06,4.6-4.6v-14.45c0-2.54-2.06-4.6-4.6-4.6h-68.06c-2.54,0-4.6,2.06-4.6,4.6v14.45c0,2.54,2.06,4.6,4.6,4.6h15.18c2.54,0,4.6,2.06,4.6,4.6v62.14c0,2.54,2.06,4.6,4.6,4.6Z"/>
        <path class="cls-1" d="M629.91,11.04l-11.22,43.89c-1.18,4.62-7.74,4.62-8.92,0l-11.22-43.89c-.52-2.04-2.36-3.46-4.46-3.46h-19.73c-3.12,0-5.33,3.03-4.38,6l27.33,85.79c.61,1.91,2.38,3.2,4.38,3.2h25.07c2,0,3.78-1.3,4.38-3.2l27.33-85.79c.95-2.97-1.27-6-4.38-6h-19.73c-2.1,0-3.94,1.43-4.46,3.46Z"/>
        <rect class="cls-1" x="780.43" y="7.58" width="28.36" height="94.99" rx="4.6" ry="4.6"/>
        <path class="cls-1" d="M956.31,66h29.58c2.54,0,4.6-2.06,4.6-4.6v-13.76c0-2.54-2.06-4.6-4.6-4.6h-29.58c-2.54,0-4.6-2.06-4.6-4.6v-3.3c0-2.54,2.06-4.6,4.6-4.6h33.74c2.54,0,4.6-2.06,4.6-4.6v-13.76c0-2.54-2.06-4.6-4.6-4.6h-62.1c-2.54,0-4.6,2.06-4.6,4.6v85.79c0,2.54,2.06,4.6,4.6,4.6h62.24c2.54,0,4.6-2.06,4.6-4.6v-13.76c0-2.54-2.06-4.6-4.6-4.6h-33.88c-2.54,0-4.6-2.06-4.6-4.6v-4.41c0-2.54,2.06-4.6,4.6-4.6Z"/>
        <path class="cls-1" d="M665.76,55.27c0-4.55.58-8.92,1.74-13.11,1.16-4.19,2.81-8.12,4.96-11.79,2.15-3.67,4.72-7.01,7.7-10.02,2.99-3.01,6.31-5.58,9.96-7.7,3.65-2.13,7.57-3.78,11.77-4.96,4.19-1.18,8.56-1.77,13.12-1.77s8.87.59,13.09,1.77c4.21,1.18,8.14,2.83,11.8,4.96,3.65,2.12,6.98,4.69,9.99,7.7,3.01,3.01,5.58,6.35,7.7,10.02,2.13,3.67,3.78,7.6,4.96,11.79,1.18,4.19,1.77,8.56,1.77,13.11s-.59,8.93-1.77,13.11c-1.18,4.19-2.84,8.09-4.96,11.72-2.13,3.63-4.7,6.93-7.7,9.92-3.01,2.99-6.34,5.55-9.99,7.7-3.65,2.15-7.58,3.8-11.8,4.96-4.21,1.16-8.57,1.74-13.09,1.74s-8.93-.58-13.12-1.74c-4.19-1.16-8.11-2.81-11.77-4.96-3.65-2.15-6.97-4.72-9.96-7.7-2.99-2.99-5.56-6.29-7.7-9.92-2.15-3.63-3.8-7.54-4.96-11.72-1.16-4.19-1.74-8.56-1.74-13.11ZM690.69,55.21c0,3.57.6,6.89,1.8,9.99,1.2,3.09,2.89,5.78,5.05,8.08,2.17,2.3,4.73,4.1,7.69,5.41,2.96,1.31,6.22,1.97,9.78,1.97s6.83-.66,9.81-1.97c2.98-1.31,5.55-3.11,7.72-5.41,2.17-2.3,3.85-4.99,5.05-8.08,1.2-3.09,1.8-6.42,1.8-9.99s-.6-6.84-1.8-9.95c-1.2-3.11-2.88-5.83-5.05-8.15-2.17-2.32-4.74-4.14-7.72-5.47-2.98-1.33-6.25-2-9.81-2s-6.82.67-9.78,2c-2.96,1.33-5.52,3.16-7.69,5.47-2.17,2.32-3.85,5.04-5.05,8.15s-1.8,6.43-1.8,9.95Z"/>
      </g>
      <g>
        <path class="cls-1" d="M1091.83,17.73c-.3,0-.44-.18-.44-.52V4.37h-3.66c-.33,0-.49-.18-.48-.53V.54c0-.36.16-.54.48-.54h11.91c.33,0,.5.18.5.54v3.31c0,.36-.17.53-.5.53h-3.65v12.83c0,.35-.18.52-.52.52h-3.64Z"/>
        <path class="cls-1" d="M1102.82,17.73c-.32,0-.48-.18-.48-.52V.54c0-.36.16-.54.49-.54h4.51c.07,0,.13,0,.17.02.04.01.08.04.12.08.04.04.06.07.07.09.01.02.03.07.06.16.03.09.05.15.07.18l3.38,7.92.42,1.99.43-2.02,3.36-7.89.18-.4c.04-.09.14-.14.32-.14h4.52c.33,0,.49.18.49.54v16.67c0,.35-.16.52-.48.52h-3.5c-.33,0-.5-.18-.49-.52l.04-8.12.09-1.48-.62,1.6-2.24,5.98c-.11.26-.18.4-.2.44-.07.08-.19.11-.36.1h-3.1c-.16,0-.27-.03-.33-.09-.05-.06-.12-.21-.21-.46l-2.23-6.07-.65-1.64.12,1.63.02,8.11c0,.35-.16.52-.49.52h-3.49Z"/>
      </g>
    </g>
  </g>
</svg>