<svg id="Component_12_1" data-name="Component 12 – 1" xmlns="http://www.w3.org/2000/svg" xmlns:xlink="http://www.w3.org/1999/xlink" width="176.411" height="114.535" viewBox="0 0 176.411 114.535">
  <defs>
    <clipPath id="clip-path">
      <rect id="Rectangle_17382" data-name="Rectangle 17382" width="176.412" height="114.535" fill="none"/>
    </clipPath>
  </defs>
  <g id="Group_3551" data-name="Group 3551" clip-path="url(#clip-path)">
    <path id="Path_3651" data-name="Path 3651" d="M13.087,150.041l-5.032-2.951c-1.661-.966-1.956-1.4-1.956-2.129,0-1.014.517-1.528,3.344-1.528a15.433,15.433,0,0,1,4.662.6c1.023.283,1.6.276,2-.024s.553-.855.553-1.92v-.378c0-1.8-.474-2.363-2.41-2.888a16.741,16.741,0,0,0-4.8-.616c-6.184,0-9.064,2.1-9.064,6.6a7.251,7.251,0,0,0,3.944,6.572l4.844,2.838c2.482,1.435,2.9,1.979,2.9,2.885,0,1.162-.617,1.793-3.873,1.793a23.582,23.582,0,0,1-5.684-.748c-.947-.258-1.522-.239-1.922.067s-.588.9-.588,1.952v.379c0,1.824.415,2.329,2.335,2.849a20.3,20.3,0,0,0,5.783.729c6.6,0,9.669-2.231,9.669-7.021,0-3.14-1.274-5.054-4.7-7.062" transform="translate(0 -49.588)" fill="#ffd600"/>
    <path id="Path_3652" data-name="Path 3652" d="M42.455,159.347a5.02,5.02,0,0,1-1.646.222c-1.456,0-2.133-.726-2.133-2.285v-7.24h4.063c1.837,0,2.369-.532,2.369-2.369v-.416c0-1.837-.532-2.369-2.369-2.369H38.676v-2.7c0-1.761-.456-2.217-2.217-2.217h-.227c-1.75,0-2.315.482-2.517,2.142l-.428,2.819-1.38.3c-1.592.327-2.053.891-2.053,2.515v.151c0,1.641.5,2.142,2.142,2.142h1.263v7.2c0,4.96,2.545,7.675,7.551,7.474a6.734,6.734,0,0,0,1.747-.232c1.725-.361,2.279-1.073,2.279-2.93v-.415c0-.769-.077-1.346-.453-1.661-.393-.33-1-.3-1.926-.135" transform="translate(-10.712 -50.224)" fill="#ffd600"/>
    <path id="Path_3653" data-name="Path 3653" d="M152.937,159.347a5.02,5.02,0,0,1-1.646.222c-1.456,0-2.133-.726-2.133-2.285v-7.24h4.063c1.837,0,2.369-.532,2.369-2.369v-.416c0-1.837-.532-2.369-2.369-2.369h-4.063v-2.7c0-1.761-.456-2.217-2.217-2.217h-.227c-1.75,0-2.315.482-2.517,2.142l-.428,2.819-1.38.3c-1.592.327-2.053.891-2.053,2.515v.151c0,1.641.5,2.142,2.142,2.142h1.263v7.2c0,4.96,2.545,7.675,7.551,7.474a6.734,6.734,0,0,0,1.747-.232c1.725-.361,2.279-1.073,2.279-2.93v-.415c0-.769-.077-1.346-.453-1.661-.393-.33-1-.3-1.926-.135" transform="translate(-50.354 -50.224)" fill="#ffd600"/>
    <path id="Path_3654" data-name="Path 3654" d="M263.943,159.347a5.021,5.021,0,0,1-1.646.222c-1.455,0-2.133-.726-2.133-2.285v-7.24h4.063c1.837,0,2.369-.532,2.369-2.369v-.416c0-1.837-.532-2.369-2.369-2.369h-4.063v-2.7c0-1.761-.456-2.217-2.217-2.217h-.227c-1.75,0-2.315.482-2.517,2.142l-.428,2.819-1.38.3c-1.592.327-2.053.891-2.053,2.515v.151c0,1.641.5,2.142,2.142,2.142h1.263v7.2c0,4.96,2.545,7.675,7.551,7.474a6.734,6.734,0,0,0,1.747-.232c1.725-.361,2.279-1.073,2.279-2.93v-.415c0-.769-.077-1.346-.453-1.661-.393-.33-1-.3-1.926-.135" transform="translate(-90.184 -50.224)" fill="#ffd600"/>
    <path id="Path_3655" data-name="Path 3655" d="M66.767,146.936h-.416c-5.311,0-8.118,2.467-8.118,7.135v10.365c0,1.837.532,2.369,2.369,2.369h.719c1.837,0,2.368-.532,2.368-2.369v-9.987c0-1.831.6-2.36,2.663-2.36h.4a2.265,2.265,0,0,0,1.738-.325,2.306,2.306,0,0,0,.459-1.74v-.417c0-1.972-.571-2.671-2.179-2.671" transform="translate(-20.895 -52.722)" fill="#ffd600"/>
    <path id="Path_3656" data-name="Path 3656" d="M87.357,146.936c-6.014,0-9.064,2.948-9.064,8.761v3.026c0,5.9,3.122,8.534,10.123,8.534a17.635,17.635,0,0,0,4.676-.5c1.8-.451,2.194-.931,2.194-2.7v-.415c0-.9-.088-1.577-.519-1.927-.354-.287-.871-.326-1.785-.135a23.718,23.718,0,0,1-4.528.525c-3.3,0-4.706-.785-4.706-2.625v-.318h9.359c1.947,0,2.5-.473,2.707-2.3l.023-.359c.029-.447.054-.833.054-1.145,0-5.587-2.871-8.42-8.534-8.42m-3.609,7.4c0-1.766,1.131-2.625,3.457-2.625,2.352,0,3.5.859,3.5,2.625v.317H83.748Z" transform="translate(-28.092 -52.722)" fill="#ffd600"/>
    <path id="Path_3657" data-name="Path 3657" d="M119.218,146.936c-6.014,0-9.064,2.948-9.064,8.761v3.026c0,5.9,3.122,8.534,10.123,8.534a17.631,17.631,0,0,0,4.676-.5c1.8-.451,2.194-.931,2.194-2.7v-.415c0-.9-.088-1.577-.519-1.927-.354-.287-.871-.326-1.785-.135a23.718,23.718,0,0,1-4.528.525c-3.3,0-4.706-.785-4.706-2.625v-.318h9.359c1.947,0,2.5-.473,2.707-2.3l.023-.359c.029-.447.054-.833.054-1.145,0-5.587-2.871-8.42-8.534-8.42m-3.609,7.4c0-1.766,1.131-2.625,3.457-2.625,2.352,0,3.5.859,3.5,2.625v.317h-6.952Z" transform="translate(-39.524 -52.722)" fill="#ffd600"/>
    <path id="Path_3658" data-name="Path 3658" d="M199.757,150.862a5.86,5.86,0,0,0,2.69-5.2c0-4.495-2.873-6.87-8.307-6.87h-5.448c-3.312,0-4.789,1.477-4.789,4.79v15.51c0,3.312,1.477,4.789,4.789,4.789h5.826c5.764,0,8.686-2.463,8.686-7.324a5.764,5.764,0,0,0-3.447-5.7m-10.285-2.233v-3.722c0-.621.265-.885.885-.885h3.783c1.792,0,2.663.735,2.663,2.247,0,1.588-.871,2.36-2.663,2.36Zm5.046,10.024h-4.161c-.62,0-.885-.265-.885-.885v-4.29h5.046c2.047,0,3.041.871,3.041,2.663,0,1.713-.966,2.512-3.041,2.512" transform="translate(-65.986 -49.8)" fill="#ffd600"/>
    <path id="Path_3659" data-name="Path 3659" d="M228.221,146.935c-6.016,0-9.329,3.071-9.329,8.648v3.026c0,5.819,3.051,8.648,9.329,8.648,5.967,0,9.253-3.071,9.253-8.648v-3.026c0-5.819-3.026-8.648-9.253-8.648m-3.873,8.648c0-2.613.977-3.5,3.873-3.5s3.8.817,3.8,3.5v3.026c0,2.678-.887,3.5-3.8,3.5s-3.873-.882-3.873-3.5Z" transform="translate(-78.54 -52.722)" fill="#ffd600"/>
    <path id="Path_3660" data-name="Path 3660" d="M156.023,37.054A37.055,37.055,0,1,1,118.968,0a37.054,37.054,0,0,1,37.054,37.054" transform="translate(-29.391)" fill="#ffd600"/>
    <path id="Path_3661" data-name="Path 3661" d="M135.768,79.854c0,2.37-7.308,4.715-9.679,4.715s-1.126-.528-1.126-2.9a4.291,4.291,0,0,1,4.291-4.291c2.37,0,6.514.1,6.514,2.473" transform="translate(-44.721 -27.765)" fill="#ffd600"/>
    <path id="Path_3662" data-name="Path 3662" d="M169.96,63.087v-5.3a1.9,1.9,0,0,1,1.9-1.9h.72a1.9,1.9,0,0,1,1.9,1.9v5.3a1.9,1.9,0,0,1-1.9,1.9h-.72a1.9,1.9,0,0,1-1.9-1.9" transform="translate(-60.983 -20.05)" fill="#ffd600"/>
    <path id="Path_3663" data-name="Path 3663" d="M136.929,67.34H121.5a10.157,10.157,0,0,1-10.157-10.158v-3.84A10.157,10.157,0,0,1,121.5,43.185h15.426a10.157,10.157,0,0,1,10.158,10.157v3.84A10.158,10.158,0,0,1,136.929,67.34" transform="translate(-39.952 -15.495)" fill="#ffd600"/>
    <path id="Path_3664" data-name="Path 3664" d="M108.6,63.087v-5.3a1.9,1.9,0,0,0-1.9-1.9h-.719a1.9,1.9,0,0,0-1.9,1.9v5.3a1.9,1.9,0,0,0,1.9,1.9h.719a1.9,1.9,0,0,0,1.9-1.9" transform="translate(-37.343 -20.05)" fill="#ffd600"/>
    <path id="Path_3665" data-name="Path 3665" d="M139.407,28.79a2.11,2.11,0,1,0,2.111,2.111,2.113,2.113,0,0,0-2.111-2.111" transform="translate(-49.263 -10.33)" fill="#ffd600"/>
    <path id="Path_3666" data-name="Path 3666" d="M118.229,74.608a1.543,1.543,0,0,1-1.543-1.586l.132-4.751a10.581,10.581,0,0,1-8.981-10.446V50.534A10.576,10.576,0,0,1,118.4,39.97H139.48a10.577,10.577,0,0,1,10.565,10.564v7.292A10.577,10.577,0,0,1,139.48,68.39h-9.2l-11.322,6.037a1.544,1.544,0,0,1-.726.181m.173-31.552a7.486,7.486,0,0,0-7.478,7.478v7.292A7.486,7.486,0,0,0,118.4,65.3a1.543,1.543,0,0,1,1.543,1.586l-.1,3.565,9.319-4.97a1.547,1.547,0,0,1,.726-.181h9.588a7.485,7.485,0,0,0,7.478-7.477V50.534a7.486,7.486,0,0,0-7.478-7.478Z" transform="translate(-38.693 -14.342)"/>
    <path id="Path_3667" data-name="Path 3667" d="M152.591,23.26l-1.216,2.106a.745.745,0,0,0,.287,1.021q.167.093.332.192a.743.743,0,0,0,1.027-.262l1.217-2.107a.742.742,0,0,0-.271-1.012l-.363-.21a.741.741,0,0,0-1.012.271" transform="translate(-54.279 -8.213)" fill="#221f1f"/>
    <path id="Path_3668" data-name="Path 3668" d="M125.694,22.988l-.364.21a.742.742,0,0,0-.271,1.012l1.216,2.107a.745.745,0,0,0,1.028.262q.164-.1.331-.192a.744.744,0,0,0,.287-1.021l-1.216-2.107a.741.741,0,0,0-1.012-.271" transform="translate(-44.837 -8.213)" fill="#221f1f"/>
    <path id="Path_3669" data-name="Path 3669" d="M142.35,67.088h0a.413.413,0,0,0-.565.006,5.164,5.164,0,0,1-7.216,0,.415.415,0,0,0-.572.6,6,6,0,0,0,8.36,0,.416.416,0,0,0-.007-.608" transform="translate(-48.033 -24.033)"/>
    <path id="Path_3670" data-name="Path 3670" d="M137.825,69.672a6.65,6.65,0,0,1-4.615-1.873,1.044,1.044,0,1,1,1.443-1.51,4.535,4.535,0,0,0,6.344,0,1.044,1.044,0,0,1,1.443,1.51,6.65,6.65,0,0,1-4.615,1.873" transform="translate(-47.681 -23.681)"/>
    <path id="Path_3671" data-name="Path 3671" d="M169.326,65.863V51.868L170.7,52c3.349.315,5.875,2.7,5.875,5.553V60.18c0,2.851-2.526,5.239-5.875,5.553Zm2.519-11.036V62.9a3.108,3.108,0,0,0,2.214-2.724V57.551a3.108,3.108,0,0,0-2.214-2.724" transform="translate(-60.756 -18.611)"/>
    <path id="Path_3672" data-name="Path 3672" d="M107.708,65.863l-1.378-.13c-3.349-.315-5.875-2.7-5.875-5.553V57.551c0-2.851,2.526-5.239,5.875-5.553l1.378-.13Zm-2.519-11.036a3.108,3.108,0,0,0-2.214,2.724V60.18a3.109,3.109,0,0,0,2.214,2.724Z" transform="translate(-36.044 -18.611)"/>
    <path id="Path_3673" data-name="Path 3673" d="M140.17,20.481H139.8a.8.8,0,0,1-.8-.8V17.189a.8.8,0,0,1,.8-.8h.373a.8.8,0,0,1,.8.8v2.494a.8.8,0,0,1-.8.8" transform="translate(-49.874 -5.881)" fill="#221f1f"/>
    <path id="Path_3674" data-name="Path 3674" d="M140.208,40.113h-.3a.8.8,0,0,1-.8-.8V35.578a.8.8,0,0,1,.8-.8h.3a.8.8,0,0,1,.8.8v3.736a.8.8,0,0,1-.8.8" transform="translate(-49.912 -12.479)"/>
    <path id="Path_3675" data-name="Path 3675" d="M139.089,27.9a2.679,2.679,0,1,0,2.679,2.679,2.679,2.679,0,0,0-2.679-2.679m0,4.492a1.813,1.813,0,1,1,1.813-1.813,1.815,1.815,0,0,1-1.813,1.813" transform="translate(-48.945 -10.012)"/>
    <path id="Path_3676" data-name="Path 3676" d="M138.838,27.2a3.127,3.127,0,1,0,3.127,3.127,3.131,3.131,0,0,0-3.127-3.127m0,4.451a1.323,1.323,0,1,1,1.323-1.323,1.325,1.325,0,0,1-1.323,1.323" transform="translate(-48.694 -9.761)"/>
    <path id="Path_3677" data-name="Path 3677" d="M126.5,59.019h-.6a1.578,1.578,0,0,1-1.578-1.578V55.8a1.578,1.578,0,0,1,1.578-1.577h.6a1.578,1.578,0,0,1,1.578,1.577v1.641a1.578,1.578,0,0,1-1.578,1.578" transform="translate(-44.608 -19.455)"/>
    <path id="Path_3678" data-name="Path 3678" d="M126.041,59.141a2.156,2.156,0,0,1-2.154-2.153V55.943a2.154,2.154,0,1,1,4.308,0v1.045a2.156,2.156,0,0,1-2.154,2.153m0-4.8a1.6,1.6,0,0,0-1.6,1.6v1.045a1.6,1.6,0,0,0,3.2,0V55.943a1.6,1.6,0,0,0-1.6-1.6" transform="translate(-44.452 -19.3)"/>
    <path id="Path_3679" data-name="Path 3679" d="M153.029,59.019h-.6a1.578,1.578,0,0,1-1.578-1.578V55.8a1.578,1.578,0,0,1,1.578-1.577h.6a1.578,1.578,0,0,1,1.578,1.577v1.641a1.578,1.578,0,0,1-1.578,1.578" transform="translate(-54.128 -19.455)"/>
    <path id="Path_3680" data-name="Path 3680" d="M152.576,59.141a2.156,2.156,0,0,1-2.154-2.153V55.943a2.154,2.154,0,1,1,4.308,0v1.045a2.156,2.156,0,0,1-2.154,2.153m0-4.8a1.6,1.6,0,0,0-1.6,1.6v1.045a1.6,1.6,0,0,0,3.2,0V55.943a1.6,1.6,0,0,0-1.6-1.6" transform="translate(-53.973 -19.3)"/>
  </g>
</svg>
