<svg xmlns="http://www.w3.org/2000/svg" width="19.67" height="20.121" viewBox="0 0 19.67 20.121">
  <g data-name="Component 1 – 1" transform="translate(1 1)">
    <path d="M3,7.712a7.316,7.316,0,0,1,.321-3.1A2.945,2.945,0,0,1,4.608,3.321,7.316,7.316,0,0,1,7.712,3h8.246a7.316,7.316,0,0,1,3.1.321,2.945,2.945,0,0,1,1.287,1.287,7.316,7.316,0,0,1,.321,3.1v5.3a7.316,7.316,0,0,1-.321,3.1A2.944,2.944,0,0,1,19.062,17.4a7.316,7.316,0,0,1-3.1.321h-6.4a6.23,6.23,0,0,0-1.212.06,2.942,2.942,0,0,0-.748.262,6.235,6.235,0,0,0-.984.71L4.276,20.631c-.408.327-.613.49-.785.49a.491.491,0,0,1-.384-.185C3,20.8,3,20.54,3,20.017Z" transform="translate(-3 -3)" fill="none" stroke="#bcbdd0" stroke-linecap="round" stroke-linejoin="round" stroke-width="2"/>
  </g>
</svg>
