<svg id="Component_11_1" data-name="Component 11 – 1" xmlns="http://www.w3.org/2000/svg" xmlns:xlink="http://www.w3.org/1999/xlink" width="155" height="42.11" viewBox="0 0 155 42.11">
  <defs>
    <clipPath id="clip-path">
      <rect id="Rectangle_17379" data-name="Rectangle 17379" width="155" height="42.11" transform="translate(0 0)" fill="none"/>
    </clipPath>
  </defs>
  <g id="Group_3545" data-name="Group 3545" clip-path="url(#clip-path)">
    <path id="Path_3585" data-name="Path 3585" d="M124.688,42.592l-2.846-1.67c-.94-.546-1.107-.79-1.107-1.2,0-.573.292-.864,1.891-.864a8.751,8.751,0,0,1,2.638.337c.578.161.906.156,1.128-.013s.313-.484.313-1.086v-.214c0-1.016-.269-1.337-1.364-1.634a9.463,9.463,0,0,0-2.715-.348c-3.5,0-5.127,1.187-5.127,3.736a4.1,4.1,0,0,0,2.231,3.717l2.74,1.605c1.4.812,1.641,1.12,1.641,1.632,0,.658-.349,1.014-2.191,1.014a13.329,13.329,0,0,1-3.215-.423c-.536-.146-.861-.135-1.087.038s-.333.508-.333,1.1v.214c0,1.031.235,1.318,1.321,1.612a11.494,11.494,0,0,0,3.271.412c3.732,0,5.47-1.262,5.47-3.971,0-1.776-.721-2.859-2.659-3.995" transform="translate(-62.078 -18.999)" fill="#ffd600"/>
    <path id="Path_3586" data-name="Path 3586" d="M147.578,40.041h-2.3V38.513c0-1-.258-1.254-1.254-1.254H143.9c-.99,0-1.31.273-1.424,1.212l-.242,1.594-.781.172c-.9.185-1.161.5-1.161,1.422v.085c0,.928.283,1.212,1.211,1.212h.715V47.03c0,2.806,1.439,4.342,4.272,4.228a3.813,3.813,0,0,0,.988-.131c.976-.2,1.289-.607,1.289-1.657v-.235c0-.435-.044-.762-.257-.94s-.567-.169-1.09-.076a2.833,2.833,0,0,1-.931.126c-.824,0-1.207-.41-1.207-1.292v-4.1h2.3c1.039,0,1.34-.3,1.34-1.34v-.235c0-1.039-.3-1.34-1.34-1.34" transform="translate(-74.254 -19.721)" fill="#ffd600"/>
    <path id="Path_3587" data-name="Path 3587" d="M232.712,40.041h-2.3V38.513c0-1-.258-1.254-1.254-1.254h-.128c-.99,0-1.31.273-1.424,1.212l-.242,1.594-.781.172c-.9.185-1.161.5-1.161,1.422v.085c0,.928.283,1.212,1.211,1.212h.715V47.03c0,2.806,1.439,4.342,4.271,4.228a3.814,3.814,0,0,0,.988-.131c.976-.2,1.289-.607,1.289-1.657v-.235c0-.435-.044-.762-.257-.94s-.567-.169-1.09-.076a2.835,2.835,0,0,1-.931.126c-.823,0-1.206-.41-1.206-1.292v-4.1h2.3c1.039,0,1.34-.3,1.34-1.34v-.235c0-1.039-.3-1.34-1.34-1.34" transform="translate(-119.315 -19.721)" fill="#ffd600"/>
    <path id="Path_3588" data-name="Path 3588" d="M318.248,42.957c1.039,0,1.34-.3,1.34-1.34v-.235c0-1.039-.3-1.34-1.34-1.34h-2.3V38.514c0-1-.258-1.254-1.254-1.254h-.128c-.99,0-1.31.273-1.424,1.211l-.242,1.594-.781.172c-.9.185-1.161.5-1.161,1.422v.085c0,.929.283,1.212,1.211,1.212h.715v4.074c0,2.806,1.439,4.342,4.271,4.228a3.793,3.793,0,0,0,.988-.131c.976-.2,1.289-.607,1.289-1.657v-.235c0-.435-.044-.761-.257-.94s-.567-.169-1.09-.077a2.835,2.835,0,0,1-.931.126c-.823,0-1.206-.41-1.206-1.292v-4.1Z" transform="translate(-164.588 -19.721)" fill="#ffd600"/>
    <path id="Path_3589" data-name="Path 3589" d="M166.986,42.624h-.235c-3,0-4.592,1.4-4.592,4.036v5.863c0,1.039.3,1.34,1.34,1.34h.407c1.039,0,1.34-.3,1.34-1.34V46.874c0-1.036.338-1.335,1.506-1.335h.225a1.281,1.281,0,0,0,.983-.184,1.3,1.3,0,0,0,.26-.984v-.236c0-1.115-.322-1.511-1.233-1.511" transform="translate(-85.829 -22.56)" fill="#ffd600"/>
    <path id="Path_3590" data-name="Path 3590" d="M182.742,42.624c-3.4,0-5.127,1.668-5.127,4.956v1.712c0,3.339,1.766,4.828,5.726,4.828a9.979,9.979,0,0,0,2.645-.282c1.021-.255,1.241-.527,1.241-1.528v-.235c0-.511-.05-.892-.294-1.09-.2-.162-.492-.185-1.009-.076a13.436,13.436,0,0,1-2.562.3c-1.866,0-2.662-.444-2.662-1.485v-.18H186c1.1,0,1.416-.268,1.531-1.3l.013-.2c.016-.253.031-.471.031-.648,0-3.16-1.624-4.763-4.828-4.763m1.892,4.365H180.7v-.18c0-1,.64-1.485,1.956-1.485s1.977.486,1.977,1.485Z" transform="translate(-94.01 -22.56)" fill="#ffd600"/>
    <path id="Path_3591" data-name="Path 3591" d="M207.293,42.624c-3.4,0-5.127,1.668-5.127,4.956v1.712c0,3.339,1.766,4.828,5.726,4.828a9.979,9.979,0,0,0,2.645-.282c1.021-.255,1.241-.527,1.241-1.528v-.235c0-.511-.05-.892-.294-1.09-.2-.162-.492-.185-1.009-.076a13.436,13.436,0,0,1-2.562.3c-1.866,0-2.662-.444-2.662-1.485v-.18h5.294c1.1,0,1.417-.268,1.532-1.3l.013-.2c.016-.253.031-.471.031-.648,0-3.16-1.624-4.763-4.828-4.763m1.891,4.365h-3.933v-.18c0-1,.64-1.485,1.956-1.485s1.977.486,1.977,1.485Z" transform="translate(-107.005 -22.56)" fill="#ffd600"/>
    <path id="Path_3592" data-name="Path 3592" d="M267.963,43.177a3.315,3.315,0,0,0,1.522-2.941c0-2.542-1.625-3.886-4.7-3.886H261.7c-1.873,0-2.709.836-2.709,2.709v8.774c0,1.873.836,2.709,2.709,2.709H265c3.26,0,4.913-1.394,4.913-4.143a3.261,3.261,0,0,0-1.95-3.222m-5.818-3.369c0-.351.149-.5.5-.5h2.14c1.014,0,1.506.416,1.506,1.271,0,.9-.492,1.335-1.506,1.335h-2.64ZM265,47.584h-2.354c-.351,0-.5-.15-.5-.5V44.657H265c1.158,0,1.72.493,1.72,1.506,0,.97-.546,1.421-1.72,1.421" transform="translate(-137.084 -19.239)" fill="#ffd600"/>
    <path id="Path_3593" data-name="Path 3593" d="M291.231,42.625c-3.4,0-5.277,1.737-5.277,4.892v1.712c0,3.292,1.726,4.892,5.277,4.892,3.375,0,5.234-1.737,5.234-4.892V47.517c0-3.292-1.712-4.892-5.234-4.892m2.148,6.6c0,1.515-.5,1.977-2.148,1.977s-2.191-.5-2.191-1.977V47.517c0-1.478.553-1.977,2.191-1.977s2.148.462,2.148,1.977Z" transform="translate(-151.353 -22.561)" fill="#ffd600"/>
    <path id="Path_3594" data-name="Path 3594" d="M60.067,8.9q.144.081.286.165a.641.641,0,0,0,.886-.225l1.05-1.818a.639.639,0,0,0-.234-.873l-.313-.181a.639.639,0,0,0-.873.234l-1.05,1.817a.642.642,0,0,0,.248.881" transform="translate(-31.617 -3.115)" fill="#ffd600"/>
    <path id="Path_3595" data-name="Path 3595" d="M29.938,8.844a.641.641,0,0,0,.886.225q.142-.084.287-.165a.642.642,0,0,0,.248-.881L30.31,6.205a.639.639,0,0,0-.873-.234l-.314.181a.639.639,0,0,0-.234.873Z" transform="translate(-15.245 -3.115)" fill="#ffd600"/>
    <path id="Path_3596" data-name="Path 3596" d="M45.118,56.808a3.912,3.912,0,0,1-5.474,0,.9.9,0,0,0-1.246,1.3,5.715,5.715,0,0,0,7.965,0,.9.9,0,1,0-1.245-1.3" transform="translate(-20.177 -29.935)" fill="#ffd600"/>
    <path id="Path_3597" data-name="Path 3597" d="M40.207,24.869a9.124,9.124,0,0,0-8.819-6.849H23.024V16.226a2.7,2.7,0,1,0-1.64,0v1.794H13.2a9.123,9.123,0,0,0-8.805,6.8A5.061,5.061,0,0,0,0,29.507v2.268c0,2.332,1.961,4.3,4.627,4.733a9.139,9.139,0,0,0,7.207,5.933l-.114,4.1a1.332,1.332,0,0,0,1.958,1.212l9.769-5.209h7.941a9.123,9.123,0,0,0,8.584-6.079,5.061,5.061,0,0,0,4.39-4.689V29.507a5.014,5.014,0,0,0-4.155-4.638m-18-12.623a1.41,1.41,0,1,1-1.409,1.41,1.412,1.412,0,0,1,1.409-1.41M4.084,34.126a2.682,2.682,0,0,1-1.911-2.351V29.507a2.682,2.682,0,0,1,1.911-2.351Zm33.756-.7a6.459,6.459,0,0,1-6.452,6.452H23.114a1.329,1.329,0,0,0-.627.157l-8.041,4.288.085-3.076A1.331,1.331,0,0,0,13.2,39.88a6.459,6.459,0,0,1-6.452-6.452V27.136A6.459,6.459,0,0,1,13.2,20.684H31.388a6.459,6.459,0,0,1,6.452,6.452Zm4.348-1.652a2.612,2.612,0,0,1-1.716,2.262c.014-.2.031-.4.031-.61V27.26a2.6,2.6,0,0,1,1.685,2.248Z" transform="translate(0 -5.8)" fill="#ffd600"/>
    <path id="Path_3598" data-name="Path 3598" d="M46.152,3.4a.82.82,0,0,0,.82-.82V.82a.82.82,0,0,0-1.64,0V2.584a.82.82,0,0,0,.82.82" transform="translate(-23.994 0)" fill="#ffd600"/>
    <path id="Path_3599" data-name="Path 3599" d="M29.4,42.205a1.86,1.86,0,0,0-1.858,1.858v.9a1.858,1.858,0,1,0,3.717,0v-.9A1.86,1.86,0,0,0,29.4,42.205" transform="translate(-14.578 -22.338)" fill="#ffd600"/>
    <path id="Path_3600" data-name="Path 3600" d="M60.588,42.205a1.86,1.86,0,0,0-1.858,1.858v.9a1.858,1.858,0,1,0,3.717,0v-.9a1.86,1.86,0,0,0-1.858-1.858" transform="translate(-31.085 -22.338)" fill="#ffd600"/>
  </g>
</svg>
