<svg id="Huge-icon_multimedia_and_audio_outline_image" data-name="Huge-icon/multimedia and audio/outline/image" xmlns="http://www.w3.org/2000/svg" width="21.5" height="21.5" viewBox="0 0 21.5 21.5">
  <path id="Vector" d="M20.312,13.359a.75.75,0,0,0,.876-1.217Zm-2.5-2.725-.438.609h0Zm-5.013.273.5.557h0ZM8.7,14.593l.5.557h0Zm-5.013.273.438-.609h0Zm-2.5-2.725a.75.75,0,0,0-.876,1.217ZM4.75,1.5h12V0h-12ZM20,4.75v12h1.5v-12ZM16.75,20h-12v1.5h12ZM1.5,16.75v-12H0v12ZM4.75,20A3.25,3.25,0,0,1,1.5,16.75H0A4.75,4.75,0,0,0,4.75,21.5ZM20,16.75A3.25,3.25,0,0,1,16.75,20v1.5a4.75,4.75,0,0,0,4.75-4.75ZM16.75,1.5A3.25,3.25,0,0,1,20,4.75h1.5A4.75,4.75,0,0,0,16.75,0ZM4.75,0A4.75,4.75,0,0,0,0,4.75H1.5A3.25,3.25,0,0,1,4.75,1.5ZM21.188,12.141l-2.939-2.116-.876,1.217,2.939,2.116ZM12.3,10.349,8.2,14.036l1,1.115,4.1-3.686ZM4.127,14.257,1.188,12.141.312,13.359l2.939,2.116ZM8.2,14.036a3.25,3.25,0,0,1-4.073.222l-.876,1.217A4.75,4.75,0,0,0,9.2,15.151Zm10.049-4.01a4.75,4.75,0,0,0-5.953.324l1,1.115a3.25,3.25,0,0,1,4.073-.222ZM9,7.25A1.75,1.75,0,0,1,7.25,9v1.5A3.25,3.25,0,0,0,10.5,7.25ZM7.25,9A1.75,1.75,0,0,1,5.5,7.25H4A3.25,3.25,0,0,0,7.25,10.5ZM5.5,7.25A1.75,1.75,0,0,1,7.25,5.5V4A3.25,3.25,0,0,0,4,7.25ZM7.25,5.5A1.75,1.75,0,0,1,9,7.25h1.5A3.25,3.25,0,0,0,7.25,4Z" transform="translate(0)" fill="#3a3c41"/>
</svg>
