<?xml version="1.0" encoding="UTF-8"?>
<svg id="Layer_2" data-name="Layer 2" xmlns="http://www.w3.org/2000/svg" viewBox="0 0 45.7 32.99">
  <defs>
    <style>
      .cls-1 {
        fill: #f2f7f9;
      }
    </style>
  </defs>
  <g id="Layer_1-2" data-name="Layer 1">
    <g>
      <path class="cls-1" d="M7.51,17.67c.24.24.58.39.87.39.34,0,.63-.14.87-.39.58-.39.58-1.2.05-1.69h0c-.92-.91-1.44-2.17-1.44-3.52s.53-2.55,1.44-3.52c.48-.48.48-1.25,0-1.78-.48-.48-1.25-.48-1.78,0-1.4,1.4-2.17,3.27-2.17,5.25s.77,3.85,2.17,5.25Z"/>
      <path class="cls-1" d="M43.25,12.52c0,2.75-1.06,5.35-3.03,7.32-.48.48-.48,1.25,0,1.78.24.24.58.39.87.39.34,0,.63-.14.87-.39,2.41-2.41,3.76-5.63,3.76-9.05.05-3.47-1.35-6.74-3.71-9.1h0c-.48-.48-1.3-.48-1.78,0-.48.48-.48,1.3,0,1.78,1.93,1.88,3.03,4.53,3.03,7.27Z"/>
      <path class="cls-1" d="M36.41,17.87c.24.24.58.39.87.39s.63-.14.87-.39c1.4-1.4,2.17-3.27,2.17-5.25.05-2.07-.72-3.95-2.12-5.35-.48-.48-1.25-.48-1.78,0-.48.48-.48,1.25,0,1.78.91.92,1.44,2.17,1.44,3.52s-.53,2.55-1.44,3.52c-.48.48-.48,1.25,0,1.78Z"/>
      <path class="cls-1" d="M4.62,21.96c.29,0,.63-.14.87-.39.48-.48.48-1.25,0-1.78-1.93-1.93-2.99-4.53-2.99-7.27h0c0-2.74,1.11-5.39,3.03-7.27.48-.48.48-1.25,0-1.78-.48-.48-1.25-.48-1.78,0C1.35,5.83,0,9.1,0,12.52s1.35,6.65,3.76,9.05c.24.24.58.39.87.39Z"/>
      <path class="cls-1" d="M36.79,25.76c.43-.87.29-1.88-.29-2.65l-3.18-3.85c-.05-.1-.05-.24-.05-.34v-4.72c0-2.75-1.11-5.44-3.08-7.37-.87-.87-1.88-1.59-2.99-2.07v-.34c0-2.46-1.97-4.43-4.38-4.43s-4.43,1.97-4.43,4.43v.34c-3.56,1.64-5.92,5.35-5.92,9.44v4.72c0,.14,0,.24-.05.34l-3.08,3.85c-.63.77-.72,1.78-.29,2.65.43.87,1.3,1.4,2.26,1.4h5.59c.1,3.23,2.75,5.83,6.02,5.83s5.92-2.6,6.02-5.83h5.59c.96,0,1.83-.53,2.26-1.4ZM14.88,14.16c.05-3.27,2.17-6.26,5.25-7.42.48-.19.82-.63.82-1.16v-1.16c0-1.06.87-1.93,1.93-1.93s1.88.87,1.88,1.93v1.16c0,.53.34,1.01.82,1.16,1.06.39,2.02,1.01,2.89,1.83,1.49,1.49,2.31,3.47,2.31,5.59v4.04h-15.89v-4.04ZM22.88,30.53c-1.88,0-3.42-1.49-3.52-3.37h7.08c-.14,1.88-1.69,3.37-3.56,3.37ZM11.27,24.66l3.18-3.95h16.86l3.18,4-23.21-.05Z"/>
    </g>
  </g>
</svg>
