<?xml version="1.0" encoding="UTF-8"?>
<svg id="Layer_2" data-name="Layer 2" xmlns="http://www.w3.org/2000/svg" viewBox="0 0 147.04 145.59">
  <defs>
    <style>
      .cls-1 {
        fill: #111315;
      }
    </style>
  </defs>
  <g id="Layer_1-2" data-name="Layer 1">
    <g>
      <path class="cls-1" d="M52.64,95.21c-.98,3.65-1.96,6.89-5.01,9.34-1.04.84-2.27,1.31-3.34,2.07l2.58,18.69c2.4,9.09,5.69,16.89-6.64,19.19-7.89,1.47-21.3,3.16-22.88-7.62l.57-38.61c-2.42-.77-4.56-1.68-6.71-3.04-18.25-11.57-13.37-42.74,8.52-46.37,9.12-1.51,18.34-2.21,27.35-4.42,14.01-3.44,26.39-10.67,37.18-20.16,1.69-1.48,6.68-5.8,7.7-7.39,1.13-1.76,1.97-4.3,3.11-6.22,9.39-15.9,23.84-12.56,34.27.33,18.28,22.61,22.5,68.16,12.21,94.86-6.12,15.88-19.96,26.76-34.94,12.69-1.79-1.68-3.48-4.42-5.15-5.83-3.72-3.15-12.4-7.67-16.97-9.77-10.03-4.62-20.86-7.13-31.85-7.74ZM114.16,10.58c-5.99-1.33-10.51,4.94-12.63,9.67-10.07,22.53-6.61,63.77,6.58,84.63,6.75,10.67,16.53,14.33,23.6,1.53,9.44-17.09,8.02-50.44,2.09-68.75-2.66-8.22-10.42-25.03-19.63-27.08ZM94.23,99.06c-7.24-17.95-9.84-38.49-7.92-57.78.3-3,.92-5.97,1.25-8.95.03-.23.21-.5-.1-.54-10.61,9.1-23.16,16.4-36.88,19.53-9.53,10.28-6.78,24.81-.76,36.01,12.18-.18,24.16,2.59,35.43,7.25l8.98,4.49ZM35.25,55.86c-.57-.11-1.26.03-1.84.08-5.65.47-11.72,2.05-17.43,2.58-3.47,1.5-3.12,6.63,1.01,6.64,5.34-1.39,12.71-.98,17.81-2.51,3.62-1.08,4.42-6.03.45-6.79Z"/>
      <path class="cls-1" d="M102.08,46.06c.42-6.01,1.76-18.29,7.11-21.82,5.82-3.84,11.15,4.1,13.48,8.48,7.96,14.9,11.13,48.09,4.18,63.53-3.45,7.67-9.6,8.81-14.8,1.86-3.54-4.73-5.23-10.88-6.96-16.44,4.21-.84,8.78-.29,11.94-3.74,6.24-6.81,5.46-22.54-1.15-28.92-3.75-3.62-9-3.08-13.8-2.94Z"/>
      <path class="cls-1" d="M107.75,69.58c-1.74-3.64-1.78-11.31,1.03-14.36s5.72,1.31,6.57,3.94c1.11,3.43,1.22,10.65-1.82,13.04-2.36,1.86-4.76-.47-5.78-2.61Z"/>
    </g>
  </g>
</svg>