<?xml version="1.0" encoding="UTF-8"?>
<svg id="Layer_2" data-name="Layer 2" xmlns="http://www.w3.org/2000/svg" viewBox="0 0 326.56 304.58">
  <defs>
    <style>
      .cls-1 {
        fill: #f3f7fa;
      }
    </style>
  </defs>
  <g id="Layer_1-2" data-name="Layer 1">
    <g>
      <path class="cls-1" d="M211.44,37.22c.71.4,1.41.8,2.11,1.22,2.27,1.35,5.2.63,6.52-1.66l7.73-13.39c1.3-2.25.53-5.13-1.72-6.43l-2.31-1.33c-2.25-1.3-5.13-.53-6.43,1.72l-7.72,13.38c-1.32,2.29-.48,5.19,1.82,6.49Z"/>
      <path class="cls-1" d="M108.16,36.77c1.32,2.29,4.25,3.01,6.53,1.66.7-.41,1.4-.82,2.11-1.22,2.31-1.29,3.15-4.19,1.82-6.48l-7.72-13.38c-1.3-2.25-4.18-3.02-6.43-1.72l-2.31,1.33c-2.25,1.3-3.02,4.18-1.72,6.43l7.73,13.38Z"/>
      <path class="cls-1" d="M162.78,0h2.66c2.6,0,4.71,2.11,4.71,4.71v15.64c0,2.6-2.11,4.71-4.71,4.71h-2.66c-2.6,0-4.71-2.11-4.71-4.71V4.71c0-2.6,2.11-4.71,4.71-4.71Z"/>
      <path class="cls-1" d="M296.05,134.98c-7.44-28.95-33.76-50.42-65-50.42h-61.57v-16.23c6.41-2.44,10.98-8.62,10.98-15.89,0-9.4-7.62-17.01-17.01-17.01s-17.01,7.62-17.01,17.01c0,7.27,4.57,13.45,10.98,15.89v16.23h-60.24c-31.1,0-57.32,21.27-64.89,50.03C13.56,138.32,0,152.47,0,169.12v16.7c0,17.16,14.42,31.67,34.03,34.85,8.23,22.82,28.48,39.95,53.08,43.66l-.84,30.18c-.1,3.49,1.67,6.77,4.64,8.61,1.58.98,3.37,1.47,5.16,1.47,1.58,0,3.17-.38,4.61-1.15l71.91-38.35h58.45c29.16,0,54.02-18.7,63.26-44.74,18.7-3.74,32.25-17.88,32.25-34.52v-16.7c0-16.12-12.71-29.9-30.51-34.14ZM267.13,190.95c0,25.53-20.7,46.23-46.23,46.23h-113.17c-25.53,0-46.23-20.7-46.23-46.23v-31.66c0-25.53,20.7-46.23,46.23-46.23h113.17c25.53,0,46.23,20.7,46.23,46.23v31.66Z"/>
      <path class="cls-1" d="M193.27,197.33c-2.58-2.36-6.58-2.31-9.1.11-5.56,5.33-12.76,8.27-20.27,8.27s-14.7-2.94-20.27-8.27c-2.52-2.42-6.52-2.46-9.1-.11-1.36,1.24-2.15,3.01-2.18,4.85-.02,1.84.73,3.63,2.06,4.91,8.05,7.72,18.52,11.97,29.49,11.97s21.43-4.25,29.49-11.97c1.33-1.28,2.08-3.06,2.06-4.91-.02-1.84-.82-3.61-2.17-4.85h0Z"/>
      <path class="cls-1" d="M132.48,153.44c0-9.41-7.63-17.03-17.03-17.03h0c-9.41,0-17.03,7.62-17.03,17.03v11.7c0,9.41,7.62,17.03,17.03,17.03h0c9.41,0,17.03-7.62,17.03-17.03v-11.7Z"/>
      <path class="cls-1" d="M211.77,136.41h0c-9.41,0-17.03,7.62-17.03,17.03v11.7c0,9.41,7.63,17.03,17.03,17.03h0c9.41,0,17.03-7.62,17.03-17.03v-11.7c0-9.41-7.63-17.03-17.03-17.03Z"/>
    </g>
  </g>
</svg>