<?xml version="1.0" encoding="UTF-8"?>
<svg id="Layer_2" data-name="Layer 2" xmlns="http://www.w3.org/2000/svg" viewBox="0 0 633.76 93.12">
  <defs>
    <style>
      .cls-1 {
        fill: #fed40b;
      }
    </style>
  </defs>
  <g id="Layer_1-2" data-name="Layer 1">
    <g>
      <path class="cls-1" d="M47.01,42.53l-18.08-10.6c-5.97-3.47-7.03-5.02-7.03-7.65,0-3.64,1.86-5.49,12.01-5.49,6.72,0,12.35.72,16.75,2.14,3.67,1.02,5.75.99,7.17-.09,1.41-1.07,1.99-3.07,1.99-6.9v-1.36c0-6.45-1.7-8.49-8.66-10.37-5.01-1.49-10.65-2.21-17.24-2.21C11.71,0,1.36,7.54,1.36,23.73c0,10.19,4.77,18.14,14.17,23.61l17.4,10.19c8.92,5.15,10.42,7.11,10.42,10.37,0,4.18-2.22,6.44-13.92,6.44-6.42,0-13.3-.91-20.42-2.69-3.4-.93-5.47-.86-6.9.24-1.48,1.13-2.11,3.23-2.11,7.01v1.36c0,6.55,1.49,8.37,8.39,10.24,5.96,1.76,12.76,2.62,20.78,2.62,23.7,0,34.74-8.01,34.74-25.22,0-11.28-4.58-18.16-16.89-25.37Z"/>
      <path class="cls-1" d="M114.04,73.68c-2.68.54-2.31.8-5.91.8-5.23,0-7.66-2.61-7.66-8.21v-26.01h14.6c6.6,0,8.51-1.91,8.51-8.51v-1.49c0-6.6-1.91-8.51-8.51-8.51h-14.6v-9.7c0-6.33-1.64-7.96-7.96-7.96h-.82c-6.29,0-8.32,1.73-9.04,7.69l-1.54,10.12-4.96,1.09c-5.72,1.17-7.38,3.2-7.38,9.03v.54c0,5.9,1.8,7.69,7.69,7.69h4.54v25.87c0,17.82,9.14,27.57,27.13,26.85,3.32-.13,3.9-.27,6.27-.83,6.2-1.3,8.19-3.85,8.19-10.53v-1.49c0-2.76-.28-4.84-1.63-5.97-1.41-1.18-3.6-1.07-6.92-.49Z"/>
      <path class="cls-1" d="M368.54,73.68c-2.68.54-2.31.8-5.91.8-5.23,0-7.66-2.61-7.66-8.21v-26.01h14.6c6.6,0,8.51-1.91,8.51-8.51v-1.49c0-6.6-1.91-8.51-8.51-8.51h-14.6v-9.7c0-6.33-1.64-7.96-7.96-7.96h-.82c-6.29,0-8.32,1.73-9.04,7.69l-1.54,10.12-4.96,1.09c-5.72,1.17-7.38,3.2-7.38,9.03v.54c0,5.9,1.8,7.69,7.69,7.69h4.54v25.87c0,17.82,9.14,27.57,27.13,26.85,3.32-.13,3.9-.27,6.27-.83,6.2-1.3,8.19-3.85,8.19-10.53v-1.49c0-2.76-.28-4.84-1.63-5.97-1.41-1.18-3.6-1.07-6.92-.49Z"/>
      <path class="cls-1" d="M624.24,73.68c-2.68.54-2.31.8-5.91.8-5.23,0-7.66-2.61-7.66-8.21v-26.01h14.6c6.6,0,8.51-1.91,8.51-8.51v-1.49c0-6.6-1.91-8.51-8.51-8.51h-14.6v-9.7c0-6.33-1.64-7.96-7.96-7.96h-.82c-6.29,0-8.32,1.73-9.04,7.69l-1.54,10.12-4.96,1.09c-5.72,1.17-7.38,3.2-7.38,9.03v.54c0,5.9,1.8,7.69,7.69,7.69h4.54v25.87c0,17.82,9.14,27.57,27.13,26.85,3.32-.13,3.9-.27,6.27-.83,6.2-1.3,8.19-3.85,8.19-10.53v-1.49c0-2.76-.28-4.84-1.63-5.97-1.41-1.18-3.6-1.07-6.92-.49Z"/>
      <path class="cls-1" d="M164.8,20.11h-1.49c-19.08,0-29.17,8.86-29.17,25.63v37.24c0,6.6,1.91,8.51,8.51,8.51h2.58c6.6,0,8.51-1.91,8.51-8.51v-35.88c0-6.58,2.15-8.48,9.57-8.48h1.43c2.78.2,4.9.08,6.24-1.17,1.37-1.27,1.65-3.42,1.65-6.25v-1.5c0-7.08-2.05-9.59-7.83-9.59Z"/>
      <path class="cls-1" d="M212.91,20.11c-21.61,0-32.56,10.59-32.56,31.48v10.87c0,21.2,11.22,30.66,36.37,30.66,7.02,0,12.52-.59,16.8-1.79,6.48-1.62,7.88-3.35,7.88-9.71v-1.49c0-3.24-.32-5.66-1.86-6.92-1.27-1.03-3.13-1.17-6.41-.48-6.26,1.25-11.73,1.89-16.27,1.89-11.85,0-16.91-2.82-16.91-9.43v-1.14h33.62c7,0,9-1.7,9.73-8.27l.08-1.29c.1-1.61.19-2.99.19-4.11,0-20.07-10.32-30.25-30.66-30.25ZM199.95,46.7c0-6.35,4.06-9.43,12.42-9.43s12.56,3.08,12.56,9.43v1.14h-24.98v-1.14Z"/>
      <path class="cls-1" d="M286.3,20.11c-21.61,0-32.56,10.59-32.56,31.48v10.87c0,21.2,11.22,30.66,36.37,30.66,7.02,0,12.52-.59,16.8-1.79,6.48-1.62,7.88-3.35,7.88-9.71v-1.49c0-3.24-.32-5.66-1.86-6.92-1.27-1.03-3.13-1.17-6.41-.48-6.26,1.25-11.73,1.89-16.27,1.89-11.85,0-16.91-2.82-16.91-9.43v-1.14h33.62c7,0,9-1.7,9.73-8.27l.08-1.29c.1-1.61.19-2.99.19-4.11,0-20.07-10.32-30.25-30.66-30.25ZM273.34,46.7c0-6.35,4.06-9.43,12.42-9.43s12.56,3.08,12.56,9.43v1.14h-24.98v-1.14Z"/>
      <path class="cls-1" d="M480.58,44.72c6.42-4.24,9.67-10.51,9.67-18.68,0-16.15-10.32-24.68-29.84-24.68h-19.57c-11.9,0-17.21,5.31-17.21,17.21v55.72c0,11.9,5.31,17.21,17.21,17.21h20.93c20.71,0,31.2-8.85,31.2-26.31,0-9.76-3.61-15.79-12.38-20.46ZM443.63,36.69v-13.37c0-2.23.95-3.18,3.18-3.18h13.59c6.44,0,9.57,2.64,9.57,8.07,0,5.71-3.13,8.48-9.57,8.48h-16.77ZM461.76,72.71h-14.95c-2.23,0-3.18-.95-3.18-3.18v-15.41h18.13c7.35,0,10.93,3.13,10.93,9.57s-3.47,9.02-10.93,9.02Z"/>
      <path class="cls-1" d="M537.73,20.11c-21.61,0-33.51,11.03-33.51,31.07v10.87c0,20.9,10.96,31.07,33.51,31.07s33.24-11.03,33.24-31.07v-10.87c0-20.9-10.87-31.07-33.24-31.07ZM523.82,51.18c0-9.39,3.51-12.56,13.92-12.56s13.64,2.93,13.64,12.56v10.87c0,9.62-3.19,12.56-13.64,12.56s-13.92-3.17-13.92-12.56v-10.87Z"/>
    </g>
  </g>
</svg>