<svg xmlns="http://www.w3.org/2000/svg" width="128" height="128"
  viewBox="0 0 24 24" fill="none" stroke="#fff" stroke-width="2"
  stroke-linecap="round" stroke-linejoin="round" aria-label="Grant Writer">
  <!-- Clipboard -->
  <path d="M9 4h6"/>
  <path d="M10 3h4a1 1 0 0 1 1 1v1H9V4a1 1 0 0 1 1-1z"/>
  <path d="M7 6h10a2 2 0 0 1 2 2v11a3 3 0 0 1-3 3H8a3 3 0 0 1-3-3V8a2 2 0 0 1 2-2z"/>
  <!-- Lines -->
  <path d="M9 11h6"/>
  <path d="M9 15h5"/>
  <!-- Pen -->
  <path d="M14.5 20.5l6-6"/>
  <path d="M18.8 14.2l2 2"/>
</svg>
